<svg width="28" height="25" viewBox="0 0 28 25" fill="none" xmlns="http://www.w3.org/2000/svg">
<path d="M14.0003 25.0001L12.067 23.2668C9.82255 21.2446 7.96699 19.5001 6.50033 18.0334C5.03366 16.5668 3.86699 15.2499 3.00033 14.0828C2.13366 12.9166 1.52833 11.8446 1.18433 10.8668C0.840326 9.889 0.667881 8.889 0.666992 7.86678C0.666992 5.77789 1.36699 4.03345 2.76699 2.63345C4.16699 1.23345 5.91144 0.533447 8.00033 0.533447C9.15588 0.533447 10.2559 0.777892 11.3003 1.26678C12.3448 1.75567 13.2448 2.44456 14.0003 3.33345C14.7559 2.44456 15.6559 1.75567 16.7003 1.26678C17.7448 0.777892 18.8448 0.533447 20.0003 0.533447C22.0892 0.533447 23.8337 1.23345 25.2337 2.63345C26.6337 4.03345 27.3337 5.77789 27.3337 7.86678C27.3337 8.889 27.1612 9.889 26.8163 10.8668C26.4714 11.8446 25.8661 12.9166 25.0003 14.0828C24.1337 15.2499 22.967 16.5668 21.5003 18.0334C20.0337 19.5001 18.1781 21.2446 15.9337 23.2668L14.0003 25.0001Z" fill="white"/>
</svg>
